<svg width="18" height="22" viewBox="0 0 18 22" fill="none" xmlns="http://www.w3.org/2000/svg">
<path fill-rule="evenodd" clip-rule="evenodd" d="M2 8.5C2 5.09371 5.00993 2 9 2C12.9901 2 16 5.09371 16 8.5C16 10.6449 14.6877 13.0406 12.9606 15.2611C11.5957 17.016 10.0773 18.5329 9 19.5944C7.9227 18.5329 6.40427 17.016 5.03935 15.2611C3.31229 13.0406 2 10.6449 2 8.5ZM9 0C3.99007 0 0 3.90629 0 8.5C0 11.3551 1.68771 14.2094 3.46065 16.4889C4.99487 18.4615 6.7194 20.1574 7.7973 21.2173C7.9831 21.4001 8.1498 21.564 8.2929 21.7071C8.4804 21.8946 8.7348 22 9 22C9.2652 22 9.5196 21.8946 9.7071 21.7071C9.8502 21.564 10.0169 21.4001 10.2027 21.2174C11.2805 20.1574 13.0051 18.4615 14.5394 16.4889C16.3123 14.2094 18 11.3551 18 8.5C18 3.90629 14.0099 0 9 0ZM9 11.5C10.3807 11.5 11.5 10.3807 11.5 9C11.5 7.61929 10.3807 6.5 9 6.5C7.6193 6.5 6.5 7.61929 6.5 9C6.5 10.3807 7.6193 11.5 9 11.5Z" fill="#404040"/>
</svg>
