<svg width="23" height="23" viewBox="0 0 23 23" fill="none" xmlns="http://www.w3.org/2000/svg">
<path d="M4.64355 0.105286C4.99738 0.127366 5.34283 0.223791 5.65625 0.389465C5.96966 0.555139 6.2444 0.786296 6.46191 1.06622L8.92871 4.23615C9.39982 4.84189 9.56584 5.63123 9.37988 6.37579L8.62695 9.38751C8.59232 9.52656 8.59465 9.67225 8.63281 9.81036C8.67108 9.94861 8.74439 10.075 8.8457 10.1766L12.2236 13.5545C12.3253 13.6561 12.4523 13.7301 12.5908 13.7684C12.7292 13.8066 12.8754 13.8082 13.0146 13.7733L16.0244 13.0213C16.3919 12.9294 16.7758 12.9226 17.1465 13.0008C17.5171 13.079 17.865 13.2401 18.1641 13.4725L21.335 15.9393C22.522 16.863 22.6309 18.6171 21.5684 19.6785L20.1465 21.1004C19.1051 22.1418 17.545 22.603 16.0869 22.0897C12.4445 20.8081 9.13764 18.7223 6.41113 15.9881C3.67718 13.262 1.59133 9.95518 0.30957 6.31329C-0.202112 4.85677 0.258573 3.295 1.2998 2.25372L2.55078 1.00275H2.5498L2.7207 0.831848L2.91797 0.65509C3.12382 0.488844 3.35499 0.355574 3.60352 0.261536C3.93505 0.136133 4.28979 0.0832338 4.64355 0.105286ZM4.54004 1.76837C4.4224 1.76113 4.30457 1.77841 4.19434 1.82013C4.08395 1.86193 3.98381 1.92706 3.90039 2.01056L2.47852 3.43341C1.83849 4.07477 1.60684 4.97733 1.88281 5.76349C3.08193 9.16967 5.03344 12.2619 7.59082 14.8113C10.1403 17.3687 13.2326 19.3192 16.6387 20.5184C17.4248 20.7944 18.3274 20.5637 18.9688 19.9236L20.3896 18.5018H20.3906C20.474 18.4184 20.5383 18.3181 20.5801 18.2078C20.6219 18.0974 20.6401 17.979 20.6328 17.8611C20.6254 17.7435 20.5932 17.6285 20.5381 17.5242C20.4829 17.4199 20.4057 17.3281 20.3125 17.2557L17.1406 14.7899C17.041 14.7126 16.9251 14.6586 16.8018 14.6326C16.6786 14.6068 16.5508 14.6089 16.4287 14.6395L13.418 15.3914C12.9993 15.4961 12.5604 15.491 12.1445 15.3758C11.7287 15.2606 11.3501 15.0393 11.0449 14.7342L7.66797 11.3563C7.36263 11.0513 7.14087 10.6725 7.02539 10.2567C6.90996 9.84086 6.90441 9.40192 7.00879 8.98322L7.7627 5.9715C7.79321 5.84931 7.79545 5.72169 7.76953 5.59845C7.74359 5.47512 7.68954 5.35917 7.6123 5.25958L5.14551 2.08771C5.07317 1.99473 4.98207 1.91818 4.87793 1.8631C4.77354 1.80795 4.65788 1.77569 4.54004 1.76837Z" fill="#404040" stroke="#404040" stroke-width="0.2"/>
</svg>
