<svg width="24" height="16" viewBox="0 0 24 16" fill="none" xmlns="http://www.w3.org/2000/svg">
<path d="M0 8.10309C0 6.70103 0.262343 5.34021 0.787028 4.02062C1.31171 2.68729 1.94517 1.34708 2.68741 0L3.68559 0.515463C3.42965 0.927835 3.15451 1.43643 2.86017 2.04124C2.57864 2.64605 2.3099 3.29897 2.05395 4C1.8108 4.68728 1.61245 5.38832 1.45888 6.10309C1.30531 6.81787 1.22853 7.50515 1.22853 8.16495C1.22853 9.23711 1.44608 10.4055 1.88119 11.6701C2.31629 12.9347 2.91136 14.1924 3.6664 15.4433L2.68741 16C2.14993 15.134 1.67643 14.2612 1.26692 13.3814C0.87021 12.5017 0.556678 11.622 0.326329 10.7423C0.108776 9.8488 0 8.96907 0 8.10309Z" fill="#404040"/>
<path d="M11.3531 10.5361V0.453609H12.6584V10.5361H11.3531ZM11.3531 15.2371V12.9278H12.6584V15.2371H11.3531Z" fill="#404040"/>
<path d="M24 8.10309C24 8.96907 23.8912 9.8488 23.6737 10.7423C23.4561 11.622 23.1426 12.5017 22.7331 13.3814C22.3236 14.2612 21.8501 15.134 21.3126 16L20.3528 15.4433C21.1078 14.1924 21.7029 12.9347 22.138 11.6701C22.5731 10.4055 22.7907 9.23711 22.7907 8.16495C22.7907 7.50515 22.7139 6.81787 22.5603 6.10309C22.4067 5.38832 22.202 4.68728 21.9461 4C21.6901 3.29897 21.4214 2.64605 21.1398 2.04124C20.8583 1.43643 20.5831 0.927835 20.3144 0.515463L21.3318 0C22.074 1.34708 22.7011 2.68729 23.213 4.02062C23.7377 5.34021 24 6.70103 24 8.10309Z" fill="#404040"/>
</svg>
