<svg width="32" height="24" viewBox="0 0 32 24" fill="#F5F5F5" xmlns="http://www.w3.org/2000/svg">
<path d="M0 12.1546C0 10.0515 0.34979 8.01031 1.04937 6.03093C1.74895 4.03093 2.59357 2.02062 3.58322 0L4.91413 0.773195C4.57287 1.39175 4.20601 2.15464 3.81357 3.06185C3.43818 3.96907 3.07986 4.94845 2.7386 6C2.41441 7.03093 2.14993 8.08247 1.94517 9.15464C1.74042 10.2268 1.63804 11.2577 1.63804 12.2474C1.63804 13.8557 1.92811 15.6082 2.50825 17.5052C3.08839 19.4021 3.88182 21.2887 4.88853 23.1649L3.58322 24C2.86657 22.701 2.23524 21.3918 1.68923 20.0722C1.16028 18.7526 0.742238 17.433 0.435105 16.1134C0.145035 14.7732 0 13.4536 0 12.1546Z" fill="#F5F5F5"/>
<path d="M15.1375 15.8041V0.680413H16.8779V15.8041H15.1375ZM15.1375 22.8557V19.3918H16.8779V22.8557H15.1375Z" fill="#F5F5F5"/>
<path d="M32 12.1546C32 13.4536 31.855 14.7732 31.5649 16.1134C31.2748 17.433 30.8568 18.7526 30.3108 20.0722C29.7648 21.3918 29.1334 22.701 28.4168 24L27.1371 23.1649C28.1438 21.2887 28.9372 19.4021 29.5173 17.5052C30.0975 15.6082 30.3876 13.8557 30.3876 12.2474C30.3876 11.2577 30.2852 10.2268 30.0804 9.15464C29.8757 8.08247 29.6027 7.03093 29.2614 6C28.9201 4.94845 28.5618 3.96907 28.1864 3.06185C27.8111 2.15464 27.4442 1.39175 27.0859 0.773195L28.4424 0C29.432 2.02062 30.2681 4.03093 30.9506 6.03093C31.6502 8.01031 32 10.0515 32 12.1546Z" fill="#F5F5F5"/>
</svg>
