<svg width="18" height="18" viewBox="0 0 18 18" fill="none" xmlns="http://www.w3.org/2000/svg">
<path d="M1.7941 9.91954C3.01059 14.5257 4.40469 16.1842 5.24401 16.5843C5.52756 16.7195 5.9197 16.7769 6.12574 16.5398C6.46099 16.154 6.65285 15.1878 6.7168 14.6135C6.84481 13.3019 7.44997 10.6858 8.84648 10.7134C10.5921 10.7479 11.0111 14.5444 10.9762 15.4073C10.9482 16.0976 11.3602 16.5463 11.5697 16.6843C11.977 16.9604 13.2106 16.5118 14.8864 12.5081C16.3687 8.96662 16.7402 6.13628 16.7498 4.80542C16.7519 4.51287 16.6638 4.2278 16.5098 3.97901C14.761 1.15233 12.9372 1.13859 12.2679 0.807786C11.7772 0.565211 10.3702 1.13956 9.49121 1.5713C9.27245 1.67875 9.03326 1.73967 8.78954 1.73967C8.52944 1.73967 8.27529 1.66945 8.03995 1.5587C7.46106 1.28628 6.47506 0.918216 5.42503 0.807786C3.78413 0.635215 1.20058 2.7751 0.816543 4.36275C0.509311 5.63287 1.34023 8.5965 1.7941 9.91954Z" stroke="white" stroke-width="1.5"/>
</svg>
