<svg width="17" height="18" viewBox="0 0 17 18" fill="none" xmlns="http://www.w3.org/2000/svg">
<path d="M4.45587 1.06688L6.31369 3.05283C6.64478 3.40675 6.67443 3.94714 6.38404 4.33516L5.10065 6.05004C4.92363 6.28657 4.85653 6.59106 4.94245 6.87373C5.78017 9.62964 8.12743 11.3721 9.72495 12.16C10.162 12.3756 10.6733 12.1814 10.9118 11.7564L11.4181 10.8543C11.7372 10.2858 12.5063 10.1697 12.979 10.6188L15.8883 13.3833C16.3183 13.7918 16.3002 14.4827 15.8494 14.8682L14.3924 16.1142C14.2113 16.2691 13.9764 16.355 13.7381 16.3514C4.93094 16.2212 1.8133 11.4547 0.759017 3.6335C0.715247 3.30879 0.838292 2.98283 1.08294 2.76489L3.06043 1.00334C3.46574 0.642291 4.08505 0.670492 4.45587 1.06688Z" stroke="white" stroke-width="1.5"/>
</svg>
