<svg width="14" height="18" viewBox="0 0 14 18" fill="none" xmlns="http://www.w3.org/2000/svg">
<path d="M6.70215 8.98907C9.52798 8.98917 12.0417 10.7682 12.8457 13.3953L13.2119 14.5916C13.637 15.982 12.5351 17.2993 11.1172 17.2996H2.28711C0.869102 17.2994 -0.232797 15.9821 0.192383 14.5916L0.558594 13.3953C1.36256 10.7682 3.87628 8.98907 6.70215 8.98907ZM6.70215 10.1883C4.37104 10.1883 2.34625 11.6546 1.70605 13.7469L1.34082 14.9422C1.17416 15.4869 1.59575 16.1003 2.28711 16.1004H11.1172C11.8083 16.1001 12.2301 15.4869 12.0635 14.9422L11.6982 13.7469C11.058 11.6546 9.03319 10.1884 6.70215 10.1883ZM6.70215 0.100403C9.06575 0.100571 11.0312 1.93385 11.0312 4.25568C11.0312 6.57744 9.06572 8.41078 6.70215 8.41095C4.33847 8.41095 2.37213 6.57754 2.37207 4.25568C2.37207 1.93376 4.33844 0.100403 6.70215 0.100403ZM6.70215 1.29962C4.94653 1.29962 3.57227 2.64986 3.57227 4.25568L3.57617 4.40509C3.65828 5.94432 5.00131 7.21173 6.70215 7.21173C8.45762 7.21156 9.83099 5.86135 9.83105 4.25568L9.82715 4.10626C9.74508 2.56712 8.40293 1.29978 6.70215 1.29962Z" fill="white" stroke="white" stroke-width="0.2"/>
</svg>
