<svg width="14" height="16" viewBox="0 0 14 16" fill="none" xmlns="http://www.w3.org/2000/svg">
<path d="M12.0996 2.09998C12.0996 1.69646 11.736 1.29919 11.1992 1.29919H2.19922C1.6625 1.29919 1.29883 1.69647 1.29883 2.09998V13.2992C1.29883 13.7027 1.66249 14.1 2.19922 14.1H11.1992C11.736 14.1 12.0996 13.7027 12.0996 13.2992V2.09998ZM5.94922 8.49939C6.28059 8.49939 6.54883 8.7686 6.54883 9.09998C6.54862 9.43117 6.28046 9.69958 5.94922 9.69958H3.69922C3.36798 9.69958 3.09982 9.43117 3.09961 9.09998C3.09961 8.7686 3.36785 8.49939 3.69922 8.49939H5.94922ZM9.69922 5.69958C10.0305 5.69958 10.2986 5.968 10.2988 6.29919C10.2988 6.63057 10.0306 6.89978 9.69922 6.89978H3.69922C3.36785 6.89978 3.09961 6.63057 3.09961 6.29919C3.09982 5.968 3.36798 5.69958 3.69922 5.69958H9.69922ZM9.69922 2.89978C10.0305 2.89978 10.2987 3.16811 10.2988 3.49939C10.2988 3.83076 10.0306 4.09998 9.69922 4.09998H3.69922C3.36785 4.09998 3.09961 3.83076 3.09961 3.49939C3.09971 3.16811 3.36791 2.89978 3.69922 2.89978H9.69922ZM13.2988 13.2992C13.2988 14.4421 12.3194 15.2992 11.1992 15.2992H2.19922C1.07909 15.2992 0.0996094 14.4421 0.0996094 13.2992V2.09998C0.0996094 0.957088 1.07908 0.0999756 2.19922 0.0999756H11.1992C12.3194 0.0999756 13.2988 0.957094 13.2988 2.09998V13.2992Z" fill="white" stroke="white" stroke-width="0.2" stroke-linecap="round" stroke-linejoin="round"/>
</svg>
