<svg width="23" height="25" viewBox="0 0 23 25" fill="none" xmlns="http://www.w3.org/2000/svg">
<path d="M14.4189 0.149597C15.1047 0.149597 15.7653 0.404473 16.2676 0.862488L21.5879 5.71405C22.1377 6.21546 22.4512 6.9189 22.4512 7.65546V21.7971C22.4511 23.2655 21.2335 24.4503 19.7393 24.4504H6.17773C4.68347 24.4504 3.4659 23.2655 3.46582 21.7971V17.2355H2.8623C1.36806 17.2355 0.1504 16.0507 0.150391 14.5822V11.343C0.150391 9.8745 1.36805 8.6897 2.8623 8.68964H3.46582V2.80292C3.4659 1.33448 4.68347 0.149597 6.17773 0.149597H14.4189ZM6.17773 0.744324C5.00902 0.744324 4.06746 1.66931 4.06738 2.80292V8.68964H13.2598C14.754 8.68968 15.9717 9.87448 15.9717 11.343V14.5822C15.9717 16.0507 14.754 17.2355 13.2598 17.2355H4.06738V21.7971C4.06746 22.9307 5.00902 23.8557 6.17773 23.8557H19.7393C20.9079 23.8556 21.8495 22.9306 21.8496 21.7971V7.65546C21.8496 7.45739 21.8182 7.26231 21.7617 7.07538H17.9307C16.4366 7.07524 15.2199 5.89129 15.2197 4.42303V0.90155C14.9675 0.800428 14.6964 0.744324 14.4189 0.744324H6.17773ZM2.8623 9.28436C1.6936 9.28443 0.751953 10.2093 0.751953 11.343V14.5822C0.751963 15.7158 1.6936 16.6407 2.8623 16.6408H13.2598C14.4285 16.6408 15.3701 15.7159 15.3701 14.5822V11.343C15.3701 10.2093 14.4285 9.28441 13.2598 9.28436H2.8623ZM5.38281 11.3576C5.53224 11.3576 5.6724 11.3881 5.80078 11.4504C5.92791 11.5109 6.03866 11.5948 6.13086 11.7004C6.22092 11.801 6.2924 11.9142 6.34375 12.0392L6.37793 12.134C6.40756 12.2292 6.42283 12.3271 6.42285 12.4269C6.42285 12.6103 6.38069 12.7856 6.29688 12.9494L6.2959 12.9484C6.21421 13.1109 6.09838 13.2447 5.94824 13.3469C5.79131 13.4535 5.60899 13.505 5.4082 13.5051H4.58789V14.5851H3.99219V11.3576H5.38281ZM7.7832 11.3576C8.1215 11.3576 8.41576 11.428 8.65625 11.5783H8.65527C8.893 11.7222 9.07291 11.9196 9.19238 12.1682L9.26953 12.3547C9.33535 12.5455 9.36813 12.7499 9.36816 12.967C9.36816 13.283 9.304 13.5657 9.17285 13.8107L9.17383 13.8117C9.04495 14.0574 8.85815 14.2499 8.61621 14.3849L8.61523 14.384C8.37528 14.5194 8.09621 14.5851 7.7832 14.5851H6.61621V11.3576H7.7832ZM11.8994 11.3576V11.9133H10.2285V12.6896H11.6377V13.2287H10.2285V14.5851H9.63281V11.3576H11.8994ZM7.21191 14.0295H7.7832C8.0089 14.0295 8.18763 13.9803 8.32715 13.8918C8.47197 13.7998 8.5811 13.6769 8.65625 13.5207C8.73267 13.359 8.77246 13.1752 8.77246 12.967C8.77242 12.7532 8.73154 12.569 8.65332 12.4113L8.65234 12.4094C8.57756 12.254 8.46913 12.1352 8.32617 12.049L8.32422 12.048C8.18413 11.9614 8.00632 11.9133 7.7832 11.9133H7.21191V14.0295ZM4.58789 12.9494H5.39551C5.48498 12.9493 5.55613 12.9258 5.61523 12.883C5.68087 12.8354 5.73204 12.7731 5.76953 12.6935C5.8075 12.6128 5.82715 12.5242 5.82715 12.4269C5.82711 12.3306 5.80505 12.2446 5.76172 12.1662C5.71704 12.0855 5.65944 12.0249 5.58984 11.9816L5.58594 11.9787C5.52092 11.935 5.45014 11.9133 5.37012 11.9133H4.58789V12.9494ZM15.8203 4.42303C15.8205 5.55647 16.7621 6.48149 17.9307 6.48163H21.4697C21.3856 6.36323 21.2902 6.25154 21.1807 6.15155L15.8604 1.29901C15.8474 1.28721 15.8335 1.27628 15.8203 1.26483V4.42303Z" fill="#404040" stroke="#404040" stroke-width="0.3"/>
</svg>
